<?xml version="1.0" encoding="UTF-8"?><svg id="Layer_2" xmlns="http://www.w3.org/2000/svg" viewBox="0 0 141.65 164.11"><path d="M71.97,17.68c-.69-.79-1.93-.79-2.62,0L17.42,77.49c-.8,.92-1.19,2.14-1.07,3.36l7.45,78.07c.14,1.45,1.36,2.56,2.81,2.56h23.41c1.63,0,2.92-1.38,2.82-3l-2.43-38.13c-.64-11.72,8.69-21.57,20.42-21.57s21.22,10.03,20.41,21.85l-3.02,37.8c-.13,1.64,1.17,3.05,2.81,3.05h24.33c1.46,0,2.68-1.11,2.81-2.57l7.14-78.06c.11-1.22-.28-2.43-1.08-3.35L71.97,17.68Zm23.8,59.74c0,3.9-3.16,7.06-7.06,7.06s-7.06-3.16-7.06-7.06c0-.06,0-.11,0-.16h-21.68c0,.05,0,.11,0,.16,0,3.9-3.16,7.06-7.06,7.06s-7.06-3.16-7.06-7.06c0-2,.84-3.8,2.17-5.09-1.34-1.28-2.17-3.09-2.17-5.09,0-3.9,3.16-7.06,7.06-7.06s7.06,3.16,7.06,7.06c0,.06,0,.11,0,.16h21.68c0-.05,0-.11,0-.16,0-3.9,3.16-7.06,7.06-7.06s7.06,3.16,7.06,7.06c0,2-.84,3.8-2.17,5.09,1.34,1.28,2.17,3.09,2.17,5.09Z"/><path d="M138.41,78.16L73.41,3.96c-.74-.84-1.8-1.32-2.91-1.32h0c-1.12,0-2.18,.49-2.91,1.33L3.23,77.84c-1.4,1.61-1.24,4.06,.38,5.46,1.61,1.4,4.06,1.24,5.46-.38L69.26,13.83c.66-.76,1.84-.76,2.51,0l60.83,69.43c.77,.87,1.84,1.32,2.91,1.32,.91,0,1.81-.32,2.55-.96,1.61-1.41,1.77-3.86,.36-5.46Z"/></svg>