<?xml version="1.0" encoding="UTF-8"?><svg id="Layer_2" xmlns="http://www.w3.org/2000/svg" viewBox="0 0 173.3 104.23"><defs><style>.cls-1{fill:#050606;}</style></defs><path d="M168.16,84.45l-11.75-40.85c-.82-2.87-3.83-4.5-6.69-3.62-9.49,2.91-31.68,8.47-63.08,8.5-31.39-.03-53.59-5.58-63.08-8.5-2.85-.88-5.86,.76-6.69,3.62L5.15,84.45c-.8,2.79,.77,5.73,3.55,6.57,32.22,9.75,72.9,10.21,77.72,10.23h0s.09,0,.24,0c.15,0,.24,0,.24,0h0c4.82-.02,45.49-.48,77.72-10.23,2.78-.84,4.35-3.78,3.55-6.57Z"/><path class="cls-1" d="M86.65,41.87c32.24-.03,54.61-6.11,62.58-8.66,.76-.24,1.18-1.06,.94-1.82-2.1-6.44-8.65-11.14-16.4-11.14-2.47,0-4.82,.49-6.94,1.35-.64-8.08-8.02-14.46-17.05-14.46-3.92,0-7.53,1.22-10.41,3.24-3.02-4.43-8.39-7.4-14.54-7.4-4.78,0-9.09,1.79-12.2,4.66-3.1-2.83-7.38-4.58-12.12-4.58-9.45,0-17.11,6.98-17.11,15.6,0,.67,.06,1.33,.15,1.98-.42-.03-.84-.06-1.27-.06-7.96,0-14.63,4.96-16.55,11.67-.22,.76,.22,1.56,.98,1.78,9.63,2.84,30.74,7.83,59.94,7.86Z"/></svg>