<?xml version="1.0" encoding="UTF-8"?><svg id="Layer_2" xmlns="http://www.w3.org/2000/svg" viewBox="0 0 164.86 128.23"><defs><style>.cls-1{fill:#46bbbd;}</style></defs><path class="cls-1" d="M81.75,71.62c3.65-3.56,7.03-9.25,9.02-13.4,.82-1.71,2.78-2.55,4.59-1.99l29.98,9.37c2.79,.87,4.82,3.29,5.19,6.19l5.9,46.03c.35,4.48-5.93,5.86-7.48,1.64l-10.99-38.95c-.85-3.03-5.1-3.11-6.1-.13-1.55,4.64-2.29,8.98-5.95,8.98-3.44,0-5.34-5.92-7.15-11.27-.84-2.48-4.35-2.46-5.16,.03l-3.75,15.18c-1.19,4.82-5.53,8.17-10.5,8.18s-11.04,1.02-15.35,3.01c-6.89,3.18-14.33,12.63-17.38,16.8-.99,1.36-2.83,1.81-4.33,1.04-2.84-1.47-6.13-5.01-1.54-13.25,7.04-12.62,11.93-17.59,11.93-17.59l.36-.35c-.61,.03-1.23,.04-1.85,.04-18.48,0-33.46-11.61-33.46-25.92,0-5.46,2.18-10.52,5.9-14.7,5.68-6.37,14.19-9.46,22.69-8.71l.42,.04c1.63,.14,3.22,.76,4.43,1.86,3.28,3,1.75,7.11-1.23,7.89-8.45,2.21-14.46,7.88-14.46,14.54,0,8.57,9.98,15.52,22.29,15.52,1.93,0,3.8-.17,5.58-.49,0,0,9.52-.96,18.4-9.6Z"/><path class="cls-1" d="M146.46,34.01c-.98-1.82-2.98-2.85-5.05-2.83l-6.82,.06c-.3,0-.54-.24-.54-.53,0-5.17-4.23-9.34-9.4-9.27l-9.66,.14c-1.52,.02-2.92-.84-3.58-2.22l-5.61-11.71c-1.64-3.42-6.74-2.54-7.13,1.23-1.08,10.44-3.76,22.33-1.83,31.84,1.32,6.51,5.94,11.78,12.12,14.2,13.52,5.3,34.42,1.98,38.07-17.26,.25-1.3,.02-2.57-.57-3.66Zm-24.18,.6c-1.77,0-3.21-1.44-3.21-3.21s1.44-3.21,3.21-3.21,3.21,1.44,3.21,3.21-1.44,3.21-3.21,3.21Z"/><circle class="cls-1" cx="99.03" cy="97.01" r="2.29"/><circle class="cls-1" cx="112.68" cy="97.01" r="2.29"/><path class="cls-1" d="M106.59,106.12l1.46-2.53c.24-.42-.06-.94-.54-.94h-2.92c-.48,0-.79,.52-.54,.94l1.46,2.53c.24,.42,.85,.42,1.09,0Z"/></svg>